<svg width="294" height="36" viewBox="0 0 294 36" fill="none" xmlns="http://www.w3.org/2000/svg">
<g style="mix-blend-mode:plus-darker" filter="url(#filter0_d_2886_2)">
<mask id="path-1-outside-1_2886_2" maskUnits="userSpaceOnUse" x="2" y="-2" width="291" height="32" fill="black">
<rect fill="white" x="2" y="-2" width="291" height="32"/>
<path d="M4.92 27V0.599999H17.76C21.0133 0.626665 23.4133 1.25333 24.96 2.48C26.5067 3.68 27.28 5.42667 27.28 7.72C27.28 9.21333 26.84 10.5067 25.96 11.6C25.08 12.6667 23.7333 13.3467 21.92 13.64V13.68C23.9467 13.9467 25.4533 14.6533 26.44 15.8C27.4533 16.92 27.96 18.28 27.96 19.88C27.96 22.1467 27.16 23.9067 25.56 25.16C23.96 26.3867 21.56 27 18.36 27H4.92ZM11.56 22.16H17.2C18.4533 22.16 19.3867 21.9067 20 21.4C20.6133 20.8933 20.92 20.16 20.92 19.2C20.92 18.2667 20.6133 17.56 20 17.08C19.3867 16.5733 18.4533 16.32 17.2 16.32H11.56V22.16ZM11.56 11.4H16.56C19.0133 11.4 20.24 10.44 20.24 8.52C20.24 6.6 19.0133 5.64 16.56 5.64H11.56V11.4ZM53.9491 0.199999C56.6157 0.199999 58.9091 0.746666 60.8291 1.84C62.7757 2.90667 64.2691 4.45333 65.3091 6.48C66.3491 8.50667 66.8691 10.9467 66.8691 13.8C66.8691 16.6533 66.3491 19.0933 65.3091 21.12C64.2691 23.1467 62.7757 24.7067 60.8291 25.8C58.9091 26.8667 56.6157 27.4 53.9491 27.4C51.2824 27.4 48.9757 26.8667 47.0291 25.8C45.0824 24.7067 43.5891 23.1467 42.5491 21.12C41.5091 19.0933 40.9891 16.6533 40.9891 13.8C40.9891 10.9467 41.5091 8.50667 42.5491 6.48C43.5891 4.45333 45.0824 2.90667 47.0291 1.84C48.9757 0.746666 51.2824 0.199999 53.9491 0.199999ZM53.9491 5.6C52.6691 5.6 51.5891 5.90667 50.7091 6.52C49.8291 7.13333 49.1624 8.05333 48.7091 9.28C48.2557 10.48 48.0291 11.9867 48.0291 13.8C48.0291 15.5867 48.2557 17.0933 48.7091 18.32C49.1624 19.5467 49.8291 20.4667 50.7091 21.08C51.5891 21.6933 52.6691 22 53.9491 22C55.2291 22 56.2957 21.6933 57.1491 21.08C58.0291 20.4667 58.6957 19.5467 59.1491 18.32C59.6024 17.0933 59.8291 15.5867 59.8291 13.8C59.8291 11.9867 59.6024 10.48 59.1491 9.28C58.6957 8.05333 58.0291 7.13333 57.1491 6.52C56.2957 5.90667 55.2291 5.6 53.9491 5.6ZM81.4466 27V0.599999H94.2866C97.5399 0.626665 99.9399 1.25333 101.487 2.48C103.033 3.68 103.807 5.42667 103.807 7.72C103.807 9.21333 103.367 10.5067 102.487 11.6C101.607 12.6667 100.26 13.3467 98.4466 13.64V13.68C100.473 13.9467 101.98 14.6533 102.967 15.8C103.98 16.92 104.487 18.28 104.487 19.88C104.487 22.1467 103.687 23.9067 102.087 25.16C100.487 26.3867 98.0866 27 94.8866 27H81.4466ZM88.0866 22.16H93.7266C94.9799 22.16 95.9132 21.9067 96.5266 21.4C97.1399 20.8933 97.4466 20.16 97.4466 19.2C97.4466 18.2667 97.1399 17.56 96.5266 17.08C95.9132 16.5733 94.9799 16.32 93.7266 16.32H88.0866V22.16ZM88.0866 11.4H93.0866C95.5399 11.4 96.7666 10.44 96.7666 8.52C96.7666 6.6 95.5399 5.64 93.0866 5.64H88.0866V11.4ZM141.737 27H134.657L132.817 21.04H123.777L121.897 27H114.977L124.257 0.599999H132.497L141.737 27ZM125.057 16.36H131.537L128.297 5.68L125.057 16.36ZM153.754 27V0.599999H174.314V5.92H160.634V11.28H171.514V16.28H160.634V21.68H174.834V27H153.754ZM223.439 0.599999L211.039 15.44L210.599 14.4L204.319 22.04L202.999 16.48L215.799 0.599999H223.439ZM206.359 0.599999V27H199.479V0.599999H206.359ZM213.279 9.32L223.919 27H216.119L208.119 13.16L213.279 9.32ZM243.744 0.599999V27H236.864V0.599999H243.744ZM290.003 0.599999V27H283.923V14.88L284.123 6.76H284.043L277.523 27H271.963L265.443 6.76H265.363L265.563 14.88V27H259.443V0.599999H269.243L273.403 14.04L274.883 19.64H274.963L276.483 14.08L280.603 0.599999H290.003Z"/>
</mask>
<path d="M4.92 27V0.599999H17.76C21.0133 0.626665 23.4133 1.25333 24.96 2.48C26.5067 3.68 27.28 5.42667 27.28 7.72C27.28 9.21333 26.84 10.5067 25.96 11.6C25.08 12.6667 23.7333 13.3467 21.92 13.64V13.68C23.9467 13.9467 25.4533 14.6533 26.44 15.8C27.4533 16.92 27.96 18.28 27.96 19.88C27.96 22.1467 27.16 23.9067 25.56 25.16C23.96 26.3867 21.56 27 18.36 27H4.92ZM11.56 22.16H17.2C18.4533 22.16 19.3867 21.9067 20 21.4C20.6133 20.8933 20.92 20.16 20.92 19.2C20.92 18.2667 20.6133 17.56 20 17.08C19.3867 16.5733 18.4533 16.32 17.2 16.32H11.56V22.16ZM11.56 11.4H16.56C19.0133 11.4 20.24 10.44 20.24 8.52C20.24 6.6 19.0133 5.64 16.56 5.64H11.56V11.4ZM53.9491 0.199999C56.6157 0.199999 58.9091 0.746666 60.8291 1.84C62.7757 2.90667 64.2691 4.45333 65.3091 6.48C66.3491 8.50667 66.8691 10.9467 66.8691 13.8C66.8691 16.6533 66.3491 19.0933 65.3091 21.12C64.2691 23.1467 62.7757 24.7067 60.8291 25.8C58.9091 26.8667 56.6157 27.4 53.9491 27.4C51.2824 27.4 48.9757 26.8667 47.0291 25.8C45.0824 24.7067 43.5891 23.1467 42.5491 21.12C41.5091 19.0933 40.9891 16.6533 40.9891 13.8C40.9891 10.9467 41.5091 8.50667 42.5491 6.48C43.5891 4.45333 45.0824 2.90667 47.0291 1.84C48.9757 0.746666 51.2824 0.199999 53.9491 0.199999ZM53.9491 5.6C52.6691 5.6 51.5891 5.90667 50.7091 6.52C49.8291 7.13333 49.1624 8.05333 48.7091 9.28C48.2557 10.48 48.0291 11.9867 48.0291 13.8C48.0291 15.5867 48.2557 17.0933 48.7091 18.32C49.1624 19.5467 49.8291 20.4667 50.7091 21.08C51.5891 21.6933 52.6691 22 53.9491 22C55.2291 22 56.2957 21.6933 57.1491 21.08C58.0291 20.4667 58.6957 19.5467 59.1491 18.32C59.6024 17.0933 59.8291 15.5867 59.8291 13.8C59.8291 11.9867 59.6024 10.48 59.1491 9.28C58.6957 8.05333 58.0291 7.13333 57.1491 6.52C56.2957 5.90667 55.2291 5.6 53.9491 5.6ZM81.4466 27V0.599999H94.2866C97.5399 0.626665 99.9399 1.25333 101.487 2.48C103.033 3.68 103.807 5.42667 103.807 7.72C103.807 9.21333 103.367 10.5067 102.487 11.6C101.607 12.6667 100.26 13.3467 98.4466 13.64V13.68C100.473 13.9467 101.98 14.6533 102.967 15.8C103.98 16.92 104.487 18.28 104.487 19.88C104.487 22.1467 103.687 23.9067 102.087 25.16C100.487 26.3867 98.0866 27 94.8866 27H81.4466ZM88.0866 22.16H93.7266C94.9799 22.16 95.9132 21.9067 96.5266 21.4C97.1399 20.8933 97.4466 20.16 97.4466 19.2C97.4466 18.2667 97.1399 17.56 96.5266 17.08C95.9132 16.5733 94.9799 16.32 93.7266 16.32H88.0866V22.16ZM88.0866 11.4H93.0866C95.5399 11.4 96.7666 10.44 96.7666 8.52C96.7666 6.6 95.5399 5.64 93.0866 5.64H88.0866V11.4ZM141.737 27H134.657L132.817 21.04H123.777L121.897 27H114.977L124.257 0.599999H132.497L141.737 27ZM125.057 16.36H131.537L128.297 5.68L125.057 16.36ZM153.754 27V0.599999H174.314V5.92H160.634V11.28H171.514V16.28H160.634V21.68H174.834V27H153.754ZM223.439 0.599999L211.039 15.44L210.599 14.4L204.319 22.04L202.999 16.48L215.799 0.599999H223.439ZM206.359 0.599999V27H199.479V0.599999H206.359ZM213.279 9.32L223.919 27H216.119L208.119 13.16L213.279 9.32ZM243.744 0.599999V27H236.864V0.599999H243.744ZM290.003 0.599999V27H283.923V14.88L284.123 6.76H284.043L277.523 27H271.963L265.443 6.76H265.363L265.563 14.88V27H259.443V0.599999H269.243L273.403 14.04L274.883 19.64H274.963L276.483 14.08L280.603 0.599999H290.003Z" fill="white"/>
<path d="M4.92 27H2.92C2.92 28.1046 3.81543 29 4.92 29V27ZM4.92 0.599999V-1.4C3.81543 -1.4 2.92 -0.504571 2.92 0.599999H4.92ZM17.76 0.599999L17.7764 -1.39993C17.7709 -1.39998 17.7655 -1.4 17.76 -1.4L17.76 0.599999ZM24.96 2.48L23.7172 4.04699C23.7228 4.05142 23.7284 4.05581 23.734 4.06017L24.96 2.48ZM25.96 11.6L27.5027 12.8728C27.5079 12.8665 27.513 12.8603 27.518 12.854L25.96 11.6ZM21.92 13.64L21.6006 11.6657C20.6319 11.8224 19.92 12.6587 19.92 13.64H21.92ZM21.92 13.68H19.92C19.92 14.6837 20.664 15.532 21.6591 15.6629L21.92 13.68ZM26.44 15.8L24.924 17.1045C24.9348 17.1171 24.9458 17.1295 24.9569 17.1418L26.44 15.8ZM25.56 25.16L26.7769 26.7472C26.7824 26.743 26.7879 26.7387 26.7933 26.7345L25.56 25.16ZM11.56 22.16H9.56C9.56 23.2646 10.4554 24.16 11.56 24.16V22.16ZM20 21.4L21.2738 22.9419L21.2738 22.9419L20 21.4ZM20 17.08L18.7262 18.6219C18.7398 18.6331 18.7535 18.6442 18.7674 18.655L20 17.08ZM11.56 16.32V14.32C10.4554 14.32 9.56 15.2154 9.56 16.32H11.56ZM11.56 11.4H9.56C9.56 12.5046 10.4554 13.4 11.56 13.4V11.4ZM11.56 5.64V3.64C10.4554 3.64 9.56 4.53543 9.56 5.64H11.56ZM6.92 27V0.599999H2.92V27H6.92ZM4.92 2.6H17.76V-1.4H4.92V2.6ZM17.7436 2.59993C20.8167 2.62512 22.6823 3.22622 23.7172 4.04699L26.2028 0.913004C24.1443 -0.719558 21.21 -1.37179 17.7764 -1.39993L17.7436 2.59993ZM23.734 4.06017C24.7053 4.81374 25.28 5.92537 25.28 7.72H29.28C29.28 4.92797 28.3081 2.54626 26.186 0.899828L23.734 4.06017ZM25.28 7.72C25.28 8.78854 24.9769 9.63172 24.402 10.346L27.518 12.854C28.7031 11.3816 29.28 9.63813 29.28 7.72H25.28ZM24.4173 10.3272C23.9358 10.9108 23.0943 11.424 21.6006 11.6657L22.2394 15.6143C24.3724 15.2693 26.2242 14.4225 27.5027 12.8728L24.4173 10.3272ZM19.92 13.64V13.68H23.92V13.64H19.92ZM21.6591 15.6629C23.3714 15.8882 24.3562 16.4446 24.924 17.1045L27.956 14.4955C26.5505 12.8621 24.5219 12.0051 22.1809 11.6971L21.6591 15.6629ZM24.9569 17.1418C25.6166 17.8709 25.96 18.7437 25.96 19.88H29.96C29.96 17.8163 29.2901 15.9691 27.9231 14.4582L24.9569 17.1418ZM25.96 19.88C25.96 21.6127 25.3825 22.7585 24.3267 23.5855L26.7933 26.7345C28.9375 25.0548 29.96 22.6806 29.96 19.88H25.96ZM24.3431 23.5728C23.2444 24.4151 21.3607 25 18.36 25V29C21.7593 29 24.6756 28.3582 26.7769 26.7472L24.3431 23.5728ZM18.36 25H4.92V29H18.36V25ZM11.56 24.16H17.2V20.16H11.56V24.16ZM17.2 24.16C18.666 24.16 20.1465 23.8731 21.2738 22.9419L18.7262 19.8581C18.6268 19.9402 18.2407 20.16 17.2 20.16V24.16ZM21.2738 22.9419C22.4425 21.9764 22.92 20.6206 22.92 19.2H18.92C18.92 19.6994 18.7842 19.8102 18.7262 19.8581L21.2738 22.9419ZM22.92 19.2C22.92 17.7878 22.4283 16.4407 21.2326 15.505L18.7674 18.655C18.7984 18.6793 18.92 18.7456 18.92 19.2H22.92ZM21.2738 15.5381C20.1465 14.6069 18.666 14.32 17.2 14.32V18.32C18.2407 18.32 18.6268 18.5398 18.7262 18.6219L21.2738 15.5381ZM17.2 14.32H11.56V18.32H17.2V14.32ZM9.56 16.32V22.16H13.56V16.32H9.56ZM11.56 13.4H16.56V9.4H11.56V13.4ZM16.56 13.4C17.9928 13.4 19.4359 13.129 20.5526 12.255C21.7626 11.3081 22.24 9.93685 22.24 8.52H18.24C18.24 8.79007 18.1967 8.93345 18.17 8.99628C18.1483 9.04701 18.1266 9.07426 18.0874 9.10499C17.9774 9.19104 17.5805 9.4 16.56 9.4V13.4ZM22.24 8.52C22.24 7.10315 21.7626 5.73192 20.5526 4.78499C19.4359 3.91104 17.9928 3.64 16.56 3.64V7.64C17.5805 7.64 17.9774 7.84895 18.0874 7.93501C18.1266 7.96574 18.1483 7.99298 18.17 8.04372C18.1967 8.10655 18.24 8.24993 18.24 8.52H22.24ZM16.56 3.64H11.56V7.64H16.56V3.64ZM9.56 5.64V11.4H13.56V5.64H9.56ZM60.8291 1.84L59.8394 3.57797C59.8489 3.58337 59.8584 3.5887 59.868 3.59395L60.8291 1.84ZM65.3091 6.48L67.0885 5.56689L67.0885 5.56689L65.3091 6.48ZM65.3091 21.12L67.0885 22.0331L67.0885 22.0331L65.3091 21.12ZM60.8291 25.8L61.8004 27.5483L61.8085 27.5438L60.8291 25.8ZM47.0291 25.8L46.0497 27.5438C46.0558 27.5472 46.0619 27.5506 46.068 27.554L47.0291 25.8ZM42.5491 21.12L44.3285 20.2069L44.3285 20.2069L42.5491 21.12ZM42.5491 6.48L44.3285 7.39311L44.3285 7.39311L42.5491 6.48ZM47.0291 1.84L47.9901 3.59395C47.9963 3.5906 48.0024 3.58721 48.0085 3.58379L47.0291 1.84ZM50.7091 6.52L49.5655 4.8792L50.7091 6.52ZM48.7091 9.28L50.58 9.9868C50.5817 9.98231 50.5834 9.97781 50.5851 9.9733L48.7091 9.28ZM48.7091 18.32L46.8331 19.0133L46.8331 19.0133L48.7091 18.32ZM57.1491 21.08L56.0055 19.4392C55.9975 19.4447 55.9896 19.4503 55.9818 19.456L57.1491 21.08ZM59.1491 18.32L57.2731 17.6267L57.2731 17.6267L59.1491 18.32ZM59.1491 9.28L57.2731 9.9733C57.2747 9.97781 57.2764 9.98231 57.2781 9.9868L59.1491 9.28ZM57.1491 6.52L55.9818 8.14403C55.9896 8.14968 55.9975 8.15526 56.0055 8.1608L57.1491 6.52ZM53.9491 2.2C56.3404 2.2 58.2777 2.68865 59.8394 3.57797L61.8187 0.10203C59.5405 -1.19532 56.8911 -1.8 53.9491 -1.8V2.2ZM59.868 3.59395C61.4543 4.46317 62.6672 5.71232 63.5297 7.39311L67.0885 5.56689C65.871 3.19435 64.0971 1.35017 61.7901 0.0860477L59.868 3.59395ZM63.5297 7.39311C64.3927 9.07484 64.8691 11.1858 64.8691 13.8H68.8691C68.8691 10.7076 68.3055 7.93849 67.0885 5.56689L63.5297 7.39311ZM64.8691 13.8C64.8691 16.4142 64.3927 18.5252 63.5297 20.2069L67.0885 22.0331C68.3055 19.6615 68.8691 16.8924 68.8691 13.8H64.8691ZM63.5297 20.2069C62.6651 21.8916 61.4466 23.1593 59.8497 24.0562L61.8085 27.5438C64.1049 26.254 65.873 24.4017 67.0885 22.0331L63.5297 20.2069ZM59.8578 24.0517C58.2923 24.9214 56.3482 25.4 53.9491 25.4V29.4C56.8833 29.4 59.5258 28.8119 61.8004 27.5483L59.8578 24.0517ZM53.9491 25.4C51.551 25.4 49.5883 24.9217 47.9901 24.046L46.068 27.554C48.3632 28.8116 51.0138 29.4 53.9491 29.4V25.4ZM48.0085 24.0562C46.4115 23.1593 45.193 21.8916 44.3285 20.2069L40.7697 22.0331C41.9851 24.4017 43.7533 26.254 46.0497 27.5438L48.0085 24.0562ZM44.3285 20.2069C43.4655 18.5252 42.9891 16.4142 42.9891 13.8H38.9891C38.9891 16.8924 39.5527 19.6615 40.7697 22.0331L44.3285 20.2069ZM42.9891 13.8C42.9891 11.1858 43.4655 9.07484 44.3285 7.39311L40.7697 5.56689C39.5527 7.93849 38.9891 10.7076 38.9891 13.8H42.9891ZM44.3285 7.39311C45.191 5.71232 46.4038 4.46317 47.9901 3.59395L46.068 0.0860478C43.761 1.35017 41.9872 3.19435 40.7697 5.56689L44.3285 7.39311ZM48.0085 3.58379C49.6028 2.68832 51.5587 2.2 53.9491 2.2V-1.8C51.006 -1.8 48.3486 -1.19499 46.0497 0.096211L48.0085 3.58379ZM53.9491 3.6C52.3409 3.6 50.8416 3.98975 49.5655 4.8792L51.8527 8.1608C52.3365 7.82358 52.9973 7.6 53.9491 7.6V3.6ZM49.5655 4.8792C48.2828 5.77321 47.3965 7.06202 46.8331 8.5867L50.5851 9.9733C50.9283 9.04464 51.3754 8.49346 51.8527 8.1608L49.5655 4.8792ZM46.8381 8.5732C46.2721 10.0716 46.0291 11.8372 46.0291 13.8H50.0291C50.0291 12.1361 50.2394 10.8884 50.58 9.9868L46.8381 8.5732ZM46.0291 13.8C46.0291 15.7425 46.2737 17.4998 46.8331 19.0133L50.5851 17.6267C50.2377 16.6869 50.0291 15.4308 50.0291 13.8H46.0291ZM46.8331 19.0133C47.3965 20.538 48.2828 21.8268 49.5655 22.7208L51.8527 19.4392C51.3754 19.1065 50.9283 18.5554 50.5851 17.6267L46.8331 19.0133ZM49.5655 22.7208C50.8416 23.6102 52.3409 24 53.9491 24V20C52.9973 20 52.3365 19.7764 51.8527 19.4392L49.5655 22.7208ZM53.9491 24C55.5549 24 57.0544 23.611 58.3163 22.704L55.9818 19.456C55.537 19.7756 54.9032 20 53.9491 20V24ZM58.2927 22.7208C59.5754 21.8268 60.4616 20.538 61.0251 19.0133L57.2731 17.6267C56.9299 18.5554 56.4828 19.1065 56.0055 19.4392L58.2927 22.7208ZM61.0251 19.0133C61.5844 17.4998 61.8291 15.7425 61.8291 13.8H57.8291C57.8291 15.4308 57.6204 16.6869 57.2731 17.6267L61.0251 19.0133ZM61.8291 13.8C61.8291 11.8372 61.5861 10.0716 61.02 8.5732L57.2781 9.9868C57.6187 10.8884 57.8291 12.1361 57.8291 13.8H61.8291ZM61.0251 8.5867C60.4616 7.06202 59.5754 5.77321 58.2927 4.8792L56.0055 8.1608C56.4828 8.49346 56.9299 9.04464 57.2731 9.9733L61.0251 8.5867ZM58.3163 4.89597C57.0544 3.98897 55.5549 3.6 53.9491 3.6V7.6C54.9032 7.6 55.537 7.82436 55.9818 8.14403L58.3163 4.89597ZM81.4466 27H79.4466C79.4466 28.1046 80.342 29 81.4466 29V27ZM81.4466 0.599999V-1.4C80.342 -1.4 79.4466 -0.504571 79.4466 0.599999H81.4466ZM94.2866 0.599999L94.303 -1.39993C94.2975 -1.39998 94.292 -1.4 94.2866 -1.4L94.2866 0.599999ZM101.487 2.48L100.244 4.04699C100.249 4.05142 100.255 4.05581 100.261 4.06017L101.487 2.48ZM102.487 11.6L104.029 12.8728C104.034 12.8665 104.04 12.8603 104.045 12.854L102.487 11.6ZM98.4466 13.64L98.1272 11.6657C97.1585 11.8224 96.4466 12.6587 96.4466 13.64H98.4466ZM98.4466 13.68H96.4466C96.4466 14.6837 97.1905 15.532 98.1857 15.6629L98.4466 13.68ZM102.967 15.8L101.451 17.1045C101.461 17.1171 101.472 17.1295 101.483 17.1418L102.967 15.8ZM102.087 25.16L103.303 26.7472C103.309 26.743 103.314 26.7387 103.32 26.7345L102.087 25.16ZM88.0866 22.16H86.0866C86.0866 23.2646 86.982 24.16 88.0866 24.16V22.16ZM96.5266 21.4L97.8003 22.9419L97.8003 22.9419L96.5266 21.4ZM96.5266 17.08L95.2528 18.6219C95.2664 18.6331 95.2801 18.6442 95.2939 18.655L96.5266 17.08ZM88.0866 16.32V14.32C86.982 14.32 86.0866 15.2154 86.0866 16.32H88.0866ZM88.0866 11.4H86.0866C86.0866 12.5046 86.982 13.4 88.0866 13.4V11.4ZM88.0866 5.64V3.64C86.982 3.64 86.0866 4.53543 86.0866 5.64H88.0866ZM83.4466 27V0.599999H79.4466V27H83.4466ZM81.4466 2.6H94.2866V-1.4H81.4466V2.6ZM94.2702 2.59993C97.3432 2.62512 99.2089 3.22622 100.244 4.04699L102.729 0.913004C100.671 -0.719558 97.7366 -1.37179 94.303 -1.39993L94.2702 2.59993ZM100.261 4.06017C101.232 4.81374 101.807 5.92537 101.807 7.72H105.807C105.807 4.92797 104.835 2.54626 102.713 0.899828L100.261 4.06017ZM101.807 7.72C101.807 8.78854 101.503 9.63172 100.929 10.346L104.045 12.854C105.23 11.3816 105.807 9.63813 105.807 7.72H101.807ZM100.944 10.3272C100.462 10.9108 99.6209 11.424 98.1272 11.6657L98.7659 15.6143C100.899 15.2693 102.751 14.4225 104.029 12.8728L100.944 10.3272ZM96.4466 13.64V13.68H100.447V13.64H96.4466ZM98.1857 15.6629C99.898 15.8882 100.883 16.4446 101.451 17.1045L104.483 14.4955C103.077 12.8621 101.048 12.0051 98.7075 11.6971L98.1857 15.6629ZM101.483 17.1418C102.143 17.8709 102.487 18.7437 102.487 19.88H106.487C106.487 17.8163 105.817 15.9691 104.45 14.4582L101.483 17.1418ZM102.487 19.88C102.487 21.6127 101.909 22.7585 100.853 23.5855L103.32 26.7345C105.464 25.0548 106.487 22.6806 106.487 19.88H102.487ZM100.87 23.5728C99.771 24.4151 97.8872 25 94.8866 25V29C98.2859 29 101.202 28.3582 103.303 26.7472L100.87 23.5728ZM94.8866 25H81.4466V29H94.8866V25ZM88.0866 24.16H93.7266V20.16H88.0866V24.16ZM93.7266 24.16C95.1925 24.16 96.6731 23.8731 97.8003 22.9419L95.2528 19.8581C95.1534 19.9402 94.7673 20.16 93.7266 20.16V24.16ZM97.8003 22.9419C98.9691 21.9764 99.4466 20.6206 99.4466 19.2H95.4466C95.4466 19.6994 95.3107 19.8102 95.2528 19.8581L97.8003 22.9419ZM99.4466 19.2C99.4466 17.7878 98.9549 16.4407 97.7592 15.505L95.2939 18.655C95.3249 18.6793 95.4466 18.7456 95.4466 19.2H99.4466ZM97.8003 15.5381C96.6731 14.6069 95.1925 14.32 93.7266 14.32V18.32C94.7673 18.32 95.1534 18.5398 95.2528 18.6219L97.8003 15.5381ZM93.7266 14.32H88.0866V18.32H93.7266V14.32ZM86.0866 16.32V22.16H90.0866V16.32H86.0866ZM88.0866 13.4H93.0866V9.4H88.0866V13.4ZM93.0866 13.4C94.5194 13.4 95.9625 13.129 97.0792 12.255C98.2892 11.3081 98.7666 9.93685 98.7666 8.52H94.7666C94.7666 8.79007 94.7233 8.93345 94.6965 8.99628C94.6749 9.04701 94.6532 9.07426 94.614 9.10499C94.504 9.19104 94.1071 9.4 93.0866 9.4V13.4ZM98.7666 8.52C98.7666 7.10315 98.2892 5.73192 97.0792 4.78499C95.9625 3.91104 94.5194 3.64 93.0866 3.64V7.64C94.1071 7.64 94.504 7.84895 94.6139 7.93501C94.6532 7.96574 94.6749 7.99298 94.6965 8.04372C94.7233 8.10655 94.7666 8.24993 94.7666 8.52H98.7666ZM93.0866 3.64H88.0866V7.64H93.0866V3.64ZM86.0866 5.64V11.4H90.0866V5.64H86.0866ZM141.737 27V29C142.385 29 142.993 28.6859 143.368 28.1573C143.743 27.6287 143.839 26.9511 143.625 26.3393L141.737 27ZM134.657 27L132.746 27.59C133.005 28.4282 133.78 29 134.657 29V27ZM132.817 21.04L134.728 20.45C134.469 19.6118 133.694 19.04 132.817 19.04V21.04ZM123.777 21.04V19.04C122.904 19.04 122.132 19.606 121.87 20.4383L123.777 21.04ZM121.897 27V29C122.77 29 123.542 28.434 123.805 27.6017L121.897 27ZM114.977 27L113.09 26.3368C112.875 26.9487 112.97 27.6269 113.345 28.1562C113.72 28.6854 114.329 29 114.977 29V27ZM124.257 0.599999V-1.4C123.408 -1.4 122.652 -0.864107 122.37 -0.0632482L124.257 0.599999ZM132.497 0.599999L134.385 -0.0607019C134.104 -0.862875 133.347 -1.4 132.497 -1.4V0.599999ZM125.057 16.36L123.143 15.7794C122.959 16.3854 123.074 17.0427 123.451 17.5514C123.828 18.0601 124.424 18.36 125.057 18.36V16.36ZM131.537 16.36V18.36C132.17 18.36 132.766 18.0601 133.144 17.5514C133.521 17.0427 133.635 16.3854 133.451 15.7794L131.537 16.36ZM128.297 5.68L130.211 5.09939C129.955 4.25639 129.178 3.68 128.297 3.68C127.416 3.68 126.639 4.25639 126.383 5.09939L128.297 5.68ZM141.737 25H134.657V29H141.737V25ZM136.568 26.41L134.728 20.45L130.906 21.63L132.746 27.59L136.568 26.41ZM132.817 19.04H123.777V23.04H132.817V19.04ZM121.87 20.4383L119.99 26.3983L123.805 27.6017L125.685 21.6416L121.87 20.4383ZM121.897 25H114.977V29H121.897V25ZM116.864 27.6632L126.144 1.26325L122.37 -0.0632482L113.09 26.3368L116.864 27.6632ZM124.257 2.6H132.497V-1.4H124.257V2.6ZM130.609 1.2607L139.849 27.6607L143.625 26.3393L134.385 -0.0607019L130.609 1.2607ZM125.057 18.36H131.537V14.36H125.057V18.36ZM133.451 15.7794L130.211 5.09939L126.383 6.26061L129.623 16.9406L133.451 15.7794ZM126.383 5.09939L123.143 15.7794L126.971 16.9406L130.211 6.26061L126.383 5.09939ZM153.754 27H151.754C151.754 28.1046 152.65 29 153.754 29V27ZM153.754 0.599999V-1.4C152.65 -1.4 151.754 -0.504571 151.754 0.599999H153.754ZM174.314 0.599999H176.314C176.314 -0.504571 175.419 -1.4 174.314 -1.4V0.599999ZM174.314 5.92V7.92C175.419 7.92 176.314 7.02457 176.314 5.92H174.314ZM160.634 5.92V3.92C159.53 3.92 158.634 4.81543 158.634 5.92H160.634ZM160.634 11.28H158.634C158.634 12.3846 159.53 13.28 160.634 13.28V11.28ZM171.514 11.28H173.514C173.514 10.1754 172.619 9.28 171.514 9.28V11.28ZM171.514 16.28V18.28C172.619 18.28 173.514 17.3846 173.514 16.28H171.514ZM160.634 16.28V14.28C159.53 14.28 158.634 15.1754 158.634 16.28H160.634ZM160.634 21.68H158.634C158.634 22.7846 159.53 23.68 160.634 23.68V21.68ZM174.834 21.68H176.834C176.834 20.5754 175.939 19.68 174.834 19.68V21.68ZM174.834 27V29C175.939 29 176.834 28.1046 176.834 27H174.834ZM155.754 27V0.599999H151.754V27H155.754ZM153.754 2.6H174.314V-1.4H153.754V2.6ZM172.314 0.599999V5.92H176.314V0.599999H172.314ZM174.314 3.92H160.634V7.92H174.314V3.92ZM158.634 5.92V11.28H162.634V5.92H158.634ZM160.634 13.28H171.514V9.28H160.634V13.28ZM169.514 11.28V16.28H173.514V11.28H169.514ZM171.514 14.28H160.634V18.28H171.514V14.28ZM158.634 16.28V21.68H162.634V16.28H158.634ZM160.634 23.68H174.834V19.68H160.634V23.68ZM172.834 21.68V27H176.834V21.68H172.834ZM174.834 25H153.754V29H174.834V25ZM223.439 0.599999L224.974 1.8824C225.472 1.28653 225.58 0.456308 225.251 -0.247112C224.922 -0.950533 224.216 -1.4 223.439 -1.4V0.599999ZM211.039 15.44L209.197 16.2193C209.469 16.8612 210.055 17.3154 210.745 17.4182C211.434 17.5209 212.127 17.2573 212.574 16.7224L211.039 15.44ZM210.599 14.4L212.441 13.6207C212.169 12.9761 211.579 12.521 210.886 12.4207C210.193 12.3203 209.499 12.5893 209.054 13.13L210.599 14.4ZM204.319 22.04L202.373 22.502C202.549 23.2412 203.128 23.8172 203.868 23.9885C204.609 24.1598 205.382 23.8969 205.864 23.31L204.319 22.04ZM202.999 16.48L201.442 15.2249C201.054 15.7064 200.911 16.3403 201.053 16.942L202.999 16.48ZM215.799 0.599999V-1.4C215.194 -1.4 214.622 -1.12615 214.242 -0.655123L215.799 0.599999ZM206.359 0.599999H208.359C208.359 -0.504571 207.464 -1.4 206.359 -1.4V0.599999ZM206.359 27V29C207.464 29 208.359 28.1046 208.359 27H206.359ZM199.479 27H197.479C197.479 28.1046 198.375 29 199.479 29V27ZM199.479 0.599999V-1.4C198.375 -1.4 197.479 -0.504571 197.479 0.599999H199.479ZM213.279 9.32L214.993 8.28873C214.702 7.80507 214.22 7.46694 213.666 7.35776C213.112 7.24859 212.538 7.37853 212.085 7.71553L213.279 9.32ZM223.919 27V29C224.64 29 225.306 28.6119 225.66 27.9842C226.015 27.3566 226.005 26.5865 225.633 25.9687L223.919 27ZM216.119 27L214.388 28.0009C214.745 28.6192 215.405 29 216.119 29V27ZM208.119 13.16L206.925 11.5555C206.111 12.1617 205.88 13.2819 206.388 14.1609L208.119 13.16ZM221.905 -0.682403L209.505 14.1576L212.574 16.7224L224.974 1.8824L221.905 -0.682403ZM212.881 14.6607L212.441 13.6207L208.757 15.1793L209.197 16.2193L212.881 14.6607ZM209.054 13.13L202.774 20.77L205.864 23.31L212.144 15.67L209.054 13.13ZM206.265 21.578L204.945 16.018L201.053 16.942L202.373 22.502L206.265 21.578ZM204.557 17.7351L217.357 1.85512L214.242 -0.655123L201.442 15.2249L204.557 17.7351ZM215.799 2.6H223.439V-1.4H215.799V2.6ZM204.359 0.599999V27H208.359V0.599999H204.359ZM206.359 25H199.479V29H206.359V25ZM201.479 27V0.599999H197.479V27H201.479ZM199.479 2.6H206.359V-1.4H199.479V2.6ZM211.566 10.3513L222.206 28.0313L225.633 25.9687L214.993 8.28873L211.566 10.3513ZM223.919 25H216.119V29H223.919V25ZM217.851 25.9991L209.851 12.1591L206.388 14.1609L214.388 28.0009L217.851 25.9991ZM209.313 14.7645L214.473 10.9245L212.085 7.71553L206.925 11.5555L209.313 14.7645ZM243.744 0.599999H245.744C245.744 -0.504571 244.848 -1.4 243.744 -1.4V0.599999ZM243.744 27V29C244.848 29 245.744 28.1046 245.744 27H243.744ZM236.864 27H234.864C234.864 28.1046 235.759 29 236.864 29V27ZM236.864 0.599999V-1.4C235.759 -1.4 234.864 -0.504571 234.864 0.599999H236.864ZM241.744 0.599999V27H245.744V0.599999H241.744ZM243.744 25H236.864V29H243.744V25ZM238.864 27V0.599999H234.864V27H238.864ZM236.864 2.6H243.744V-1.4H236.864V2.6ZM290.003 0.599999H292.003C292.003 -0.504571 291.108 -1.4 290.003 -1.4V0.599999ZM290.003 27V29C291.108 29 292.003 28.1046 292.003 27H290.003ZM283.923 27H281.923C281.923 28.1046 282.819 29 283.923 29V27ZM283.923 14.88L281.924 14.8308C281.924 14.8472 281.923 14.8636 281.923 14.88H283.923ZM284.123 6.76L286.123 6.80924C286.136 6.27044 285.931 5.74908 285.555 5.3633C285.179 4.97753 284.662 4.76 284.123 4.76V6.76ZM284.043 6.76V4.76C283.175 4.76 282.406 5.32028 282.14 6.14676L284.043 6.76ZM277.523 27V29C278.392 29 279.161 28.4397 279.427 27.6132L277.523 27ZM271.963 27L270.06 27.6132C270.326 28.4397 271.095 29 271.963 29V27ZM265.443 6.76L267.347 6.14676C267.081 5.32028 266.312 4.76 265.443 4.76V6.76ZM265.363 6.76V4.76C264.824 4.76 264.308 4.97753 263.932 5.3633C263.556 5.74908 263.351 6.27044 263.364 6.80924L265.363 6.76ZM265.563 14.88H267.563C267.563 14.8636 267.563 14.8472 267.563 14.8308L265.563 14.88ZM265.563 27V29C266.668 29 267.563 28.1046 267.563 27H265.563ZM259.443 27H257.443C257.443 28.1046 258.339 29 259.443 29V27ZM259.443 0.599999V-1.4C258.339 -1.4 257.443 -0.504571 257.443 0.599999H259.443ZM269.243 0.599999L271.154 0.00863152C270.895 -0.828939 270.12 -1.4 269.243 -1.4V0.599999ZM273.403 14.04L275.337 13.529C275.33 13.502 275.322 13.4752 275.314 13.4486L273.403 14.04ZM274.883 19.64L272.95 20.151C273.182 21.0286 273.976 21.64 274.883 21.64V19.64ZM274.963 19.64V21.64C275.865 21.64 276.655 21.037 276.893 20.1674L274.963 19.64ZM276.483 14.08L274.571 13.4954C274.565 13.5144 274.559 13.5335 274.554 13.5526L276.483 14.08ZM280.603 0.599999V-1.4C279.724 -1.4 278.948 -0.825576 278.691 0.0154175L280.603 0.599999ZM288.003 0.599999V27H292.003V0.599999H288.003ZM290.003 25H283.923V29H290.003V25ZM285.923 27V14.88H281.923V27H285.923ZM285.923 14.9292L286.123 6.80924L282.124 6.71075L281.924 14.8308L285.923 14.9292ZM284.123 4.76H284.043V8.76H284.123V4.76ZM282.14 6.14676L275.62 26.3868L279.427 27.6132L285.947 7.37323L282.14 6.14676ZM277.523 25H271.963V29H277.523V25ZM273.867 26.3868L267.347 6.14676L263.54 7.37323L270.06 27.6132L273.867 26.3868ZM265.443 4.76H265.363V8.76H265.443V4.76ZM263.364 6.80924L263.564 14.9292L267.563 14.8308L267.363 6.71075L263.364 6.80924ZM263.563 14.88V27H267.563V14.88H263.563ZM265.563 25H259.443V29H265.563V25ZM261.443 27V0.599999H257.443V27H261.443ZM259.443 2.6H269.243V-1.4H259.443V2.6ZM267.333 1.19137L271.493 14.6314L275.314 13.4486L271.154 0.00863152L267.333 1.19137ZM271.47 14.551L272.95 20.151L276.817 19.129L275.337 13.529L271.47 14.551ZM274.883 21.64H274.963V17.64H274.883V21.64ZM276.893 20.1674L278.413 14.6074L274.554 13.5526L273.034 19.1126L276.893 20.1674ZM278.396 14.6646L282.516 1.18458L278.691 0.0154175L274.571 13.4954L278.396 14.6646ZM280.603 2.6H290.003V-1.4H280.603V2.6Z" fill="#873333" mask="url(#path-1-outside-1_2886_2)"/>
</g>
<defs>
<filter id="filter0_d_2886_2" x="0.920044" y="0.200195" width="293.083" height="35.1997" filterUnits="userSpaceOnUse" color-interpolation-filters="sRGB">
<feFlood flood-opacity="0" result="BackgroundImageFix"/>
<feColorMatrix in="SourceAlpha" type="matrix" values="0 0 0 0 0 0 0 0 0 0 0 0 0 0 0 0 0 0 127 0" result="hardAlpha"/>
<feOffset dy="4"/>
<feGaussianBlur stdDeviation="2"/>
<feComposite in2="hardAlpha" operator="out"/>
<feColorMatrix type="matrix" values="0 0 0 0 0 0 0 0 0 0 0 0 0 0 0 0 0 0 0.25 0"/>
<feBlend mode="normal" in2="BackgroundImageFix" result="effect1_dropShadow_2886_2"/>
<feBlend mode="normal" in="SourceGraphic" in2="effect1_dropShadow_2886_2" result="shape"/>
</filter>
</defs>
</svg>
